<svg width="24" height="24" viewBox="0 0 24 24" fill="none" xmlns="http://www.w3.org/2000/svg">
<path d="M23.9471 1.02847C24.0017 0.892169 24.015 0.742859 23.9855 0.599044C23.956 0.45523 23.885 0.323236 23.7812 0.219426C23.6774 0.115616 23.5454 0.0445561 23.4015 0.0150549C23.2577 -0.0144463 23.1084 -0.00109103 22.9721 0.053465L1.15162 8.78197H1.15012L0.472125 9.05196C0.34371 9.10319 0.231953 9.18891 0.149198 9.29966C0.0664433 9.41041 0.0159116 9.54188 0.00318483 9.67955C-0.00954198 9.81721 0.0160314 9.95572 0.0770801 10.0798C0.138129 10.2038 0.232277 10.3086 0.349125 10.3825L0.964125 10.7725L0.965625 10.7755L8.45812 15.5425L13.2251 23.035L13.2281 23.038L13.6181 23.653C13.6923 23.7694 13.7971 23.863 13.921 23.9237C14.045 23.9844 14.1833 24.0097 14.3207 23.9968C14.4581 23.9839 14.5892 23.9334 14.6998 23.8508C14.8103 23.7681 14.8959 23.6566 14.9471 23.5285L23.9471 1.02847ZM21.1976 3.86347L9.95662 15.1045L9.63412 14.5975C9.57503 14.5044 9.49616 14.4256 9.40312 14.3665L8.89612 14.044L20.1371 2.80296L21.9041 2.09646L21.1991 3.86347H21.1976Z" fill="#EEEEEE"/>
</svg>
